{"title":"Ang Panday 2009 Dvdrip H264 AAC-Gangmie (Filipino | Tagalog","uid":5466866,"size":736747138,"categoryP":"video","categoryS":"movies","magnet":"?xt=urn:btih:3cb45c9c7d77cf92e2430599b734af0d63e41819&amp;dn=Ang+Panday+2009+Dvdrip+H264+AAC-Gangmie+%28Filipino+%7C+Tagalog&amp;tr=udp%3A%2F%2Ftracker.openbittorrent.com%3A80&amp;tr=udp%3A%2F%2Fopen.demonii.com%3A1337&amp;tr=udp%3A%2F%2Ftracker.coppersurfer.tk%3A6969&amp;tr=udp%3A%2F%2Fexodus.desync.com%3A6969","seeders":0,"leechers":1,"uploader":"gangmie","files":3,"time":1269663312,"description":"General\nComplete name : Ang Panday 2009 Dvdrip H264 AAC-Gangmie.mp4\nFormat : MPEG-4\nFormat profile : Base Media / Version 2\nCodec ID : mp42\nFile size : 703 MiB\nDuration : 1h 47mn\nOverall bit rate : 911 Kbps\nEncoded date : UTC 2010-03-26 07:47:05\nTagged date : UTC 2010-03-26 11:22:18\n\n\nVideo\nID : 1\nFormat : AVC\nFormat/Info : Advanced Video Codec\nFormat profile : &lt;a class=&quot;__cf_email__&quot; href=&quot;/cdn-cgi/l/email-protection&quot; data-cfemail=&quot;1e567779765e522d302f&quot;&gt;[email&amp;#160;protected]&lt;/a&gt;&lt;script cf-hash='f9e31' type=&quot;text/javascript&quot;&gt;\n/* &lt;![CDATA[ */!function(){try{var t=&quot;currentScript&quot;in document?document.currentScript:function(){for(var t=document.getElementsByTagName(&quot;script&quot;),e=t.length;e--;)if(t[e].getAttribute(&quot;cf-hash&quot;))return t[e]}();if(t&amp;&amp;t.previousSibling){var e,r,n,i,c=t.previousSibling,a=c.getAttribute(&quot;data-cfemail&quot;);if(a){for(e=&quot;&quot;,r=parseInt(a.substr(0,2),16),n=2;a.length-n;n+=2)i=parseInt(a.substr(n,2),16)^r,e+=String.fromCharCode(i);e=document.createTextNode(e),c.parentNode.replaceChild(e,c)}}}catch(u){}}();/* ]]&gt; */&lt;/script&gt;\nFormat settings, CABAC : Yes\nFormat settings, ReFrames : 10 frames\nCodec ID : avc1\nCodec ID/Info : Advanced Video Coding\nDuration : 1h 47mn\nBit rate mode : Variable\nBit rate : 794 Kbps\nNominal bit rate : 812 Kbps\nWidth : 720 pixels\nHeight : 400 pixels\nDisplay aspect ratio : 16:9\nFrame rate mode : Variable\nFrame rate : 23.976 fps\nMinimum frame rate : 23.974 fps\nMaximum frame rate : 23.981 fps\nResolution : 8 bits\nColorimetry : 4:2:0\nScan type : Progressive\nBits/(Pixel*Frame) : 0.115\nStream size : 613 MiB (87%)\nWriting library : x264 core 79\nEncoding settings : cabac=1 / ref=10 / deblock=1:0:0 / analyse=0x3:0x113 / me=hex / subme=7 / psy=1 / psy_rd=1.0:0.0 / mixed_ref=1 / me_range=16 / chroma_me=1 / trellis=1 / 8x8dct=1 / cqm=0 / deadzone=21,11 / chroma_qp_offset=-2 / threads=3 / nr=0 / decimate=1 / mbaff=0 / constrained_intra=0 / bframes=10 / b_pyramid=0 / b_adapt=2 / b_bias=0 / direct=1 / wpredb=1 / wpredp=2 / keyint=240 / keyint_min=24 / scenecut=40 / rc_lookahead=50 / rc=abr / mbtree=1 / bitrate=812 / ratetol=1.0 / qcomp=0.60 / qpmin=10 / qpmax=51 / qpstep=4 / ip_ratio=1.40 / aq=1:1.00\nEncoded date : UTC 2010-03-26 07:47:05\nTagged date : UTC 2010-03-26 11:22:18\nColor primaries : BT.601-6 525, BT.1358 525, BT.1700 NTSC, SMPTE 170M\nTransfer characteristics : BT.709-5, BT.1361\nMatrix coefficients : BT.601-6 525, BT.1358 525, BT.1700 NTSC, SMPTE 170M\n\nAudio\nID : 2\nFormat : AAC\nFormat/Info : Advanced Audio Codec\nFormat version : Version 4\nFormat profile : LC\nFormat settings, SBR : No\nCodec ID : 40\nDuration : 1h 47mn\nBit rate mode : Variable\nBit rate : 112 Kbps\nMaximum bit rate : 141 Kbps\nChannel(s) : 2 channels\nChannel positions : L R\nSampling rate : 48.0 KHz\nStream size : 86.4 MiB (12%)\nLanguage : Tagalog\nEncoded date : UTC 2010-03-26 07:47:05\nTagged date : UTC 2010-03-26 11:22:18\n\nSubtitle: english &lt;a href=&quot;\nhttp://thepiratebay.se/user/gangmie/&quot; rel=&quot;nofollow&quot; target=&quot;_NEW&quot;&gt;\nhttp://thepiratebay.se/user/gangmie/&lt;/a&gt;","torrent":{"xt":"urn:btih:3cb45c9c7d77cf92e2430599b734af0d63e41819","amp;dn":"Ang+Panday+2009+Dvdrip+H264+AAC-Gangmie+%28Filipino+%7C+Tagalog","amp;tr":["udp%3A%2F%2Ftracker.openbittorrent.com%3A80","udp%3A%2F%2Fopen.demonii.com%3A1337","udp%3A%2F%2Ftracker.coppersurfer.tk%3A6969","udp%3A%2F%2Fexodus.desync.com%3A6969"],"infoHash":"3cb45c9c7d77cf92e2430599b734af0d63e41819","infoHashBuffer":{"type":"Buffer","data":[60,180,92,156,125,119,207,146,226,67,5,153,183,52,175,13,99,228,24,25]},"announce":[],"urlList":[]}}